<svg viewBox="0 0 1280 640" xmlns="http://www.w3.org/2000/svg">
  <defs>
    <linearGradient id="cover6" x1="0" y1="0" x2="1" y2="1">
      <stop offset="0%" stop-color="#0a1a33"/>
      <stop offset="100%" stop-color="#0b3d75"/>
    </linearGradient>
    <radialGradient id="glow6" cx="80%" cy="15%" r="60%">
      <stop offset="0%" stop-color="#1a5fa8" stop-opacity="0.55"/>
      <stop offset="100%" stop-color="#1a5fa8" stop-opacity="0"/>
    </radialGradient>
  </defs>

  <rect width="1280" height="640" fill="url(#cover6)"/>
  <rect width="1280" height="640" fill="url(#glow6)"/>

  <!-- faint network pattern -->
  <g stroke="#ffffff" stroke-opacity="0.12" stroke-width="1.5">
    <line x1="880" y1="90" x2="1020" y2="170"/>
    <line x1="1020" y1="170" x2="1180" y2="120"/>
    <line x1="1020" y1="170" x2="1000" y2="320"/>
    <line x1="880" y1="90" x2="960" y2="260"/>
    <line x1="960" y1="260" x2="1000" y2="320"/>
    <line x1="1000" y1="320" x2="1150" y2="380"/>
  </g>
  <g fill="#ffffff" fill-opacity="0.35">
    <circle cx="880" cy="90" r="5"/>
    <circle cx="1020" cy="170" r="5"/>
    <circle cx="1180" cy="120" r="5"/>
    <circle cx="960" cy="260" r="5"/>
    <circle cx="1000" cy="320" r="5"/>
    <circle cx="1150" cy="380" r="5"/>
  </g>

  <!-- badge icon top-left -->
  <rect x="60" y="56" width="52" height="52" rx="10" fill="#ffffff" fill-opacity="0.12"/>
  <path d="M86 66 L104 73 V86 C104 98 96 106 86 110 C76 106 68 98 68 86 V73 Z" fill="none" stroke="#ffffff" stroke-width="2.5"/>
  <path d="M78 88 L84 94 L96 80" fill="none" stroke="#ffffff" stroke-width="2.5" stroke-linecap="round" stroke-linejoin="round"/>

  <!-- title -->
  <text x="58" y="330" font-family="Poppins, sans-serif" font-size="58" font-weight="700" fill="#ffffff" letter-spacing="1">DATA</text>
  <text x="58" y="395" font-family="Poppins, sans-serif" font-size="58" font-weight="700" fill="#ffffff" letter-spacing="1">GOVERNANCE</text>
  <text x="58" y="460" font-family="Poppins, sans-serif" font-size="58" font-weight="700" fill="#5aa9e6" letter-spacing="1">OPERATING MODEL</text>

  <!-- caption -->
  <text x="60" y="560" font-family="Raleway, sans-serif" font-size="18" fill="#c9d9ea">Governance Case Study · Illustrative</text>
  <line x1="60" y1="578" x2="1220" y2="578" stroke="#ffffff" stroke-opacity="0.15" stroke-width="1"/>
</svg>
